<svg width="36" height="36" viewBox="0 0 36 36" fill="none" xmlns="http://www.w3.org/2000/svg">
<rect width="36" height="36" rx="10" fill="#FF6E04" fill-opacity="0.24"/>
<path d="M24.639 9.94519H23.2786L22.3128 10.8891H24.639C24.8994 10.8891 25.111 11.1006 25.111 11.3611V12.0801C25.111 13.0314 24.7838 13.9642 24.1892 14.7072C23.6817 15.3419 23.0061 15.8129 22.2355 16.0696L21.5699 16.2913C21.3229 16.3738 21.1892 16.6411 21.2713 16.8887C21.3371 17.0864 21.5215 17.2113 21.7192 17.2113C21.7685 17.2113 21.8188 17.2034 21.8686 17.1873L22.5341 16.9651C23.4775 16.6508 24.3048 16.0738 24.9266 15.2972C25.654 14.3874 26.0549 13.2447 26.0549 12.0801V11.3611C26.0549 10.5804 25.4197 9.94519 24.639 9.94519Z" fill="#3366FF"/>
<path d="M14.4303 16.2913L13.7648 16.0701C12.9941 15.8129 12.3185 15.3419 11.811 14.7072C11.2164 13.9642 10.8892 13.0314 10.8892 12.0801V11.3611C10.8892 11.1006 11.1008 10.8891 11.3612 10.8891H13.8001L12.7216 9.94519H11.3612C10.5805 9.94519 9.94531 10.5804 9.94531 11.3611V12.0801C9.94531 13.2447 10.3462 14.3874 11.0736 15.2972C11.6954 16.0738 12.5227 16.6508 13.4661 16.9656L14.1316 17.1873C14.1814 17.2034 14.2317 17.2113 14.281 17.2113C14.4787 17.2113 14.6631 17.0864 14.729 16.8887C14.8111 16.6411 14.6773 16.3738 14.4303 16.2913Z" fill="#3366FF"/>
<path d="M19.4475 19.1579V19.8564C19.4475 20.1206 19.6551 20.3283 19.9195 20.3283C20.703 20.3283 21.3353 20.9607 21.3353 21.7442V22.6881C21.3353 22.9524 21.1277 23.1601 20.8634 23.1601H15.1369C14.8726 23.1601 14.665 22.9524 14.665 22.6881V21.7442C14.665 20.9607 15.2973 20.3283 16.0808 20.3283C16.3452 20.3283 16.5528 20.1206 16.5528 19.8564V19.1579C14.7971 18.6009 13.5135 17.0529 13.3057 15.2122L12.7205 9.94519H23.2798L22.6946 15.2122C22.4868 17.0529 21.2032 18.6009 19.4475 19.1579Z" fill="#C1D0FF"/>
<path d="M20.8632 23.1601H18V9.94519H23.2797L22.6944 15.2122C22.4867 17.0529 21.2031 18.6009 19.4473 19.1579V19.8564C19.4473 20.1206 19.6549 20.3283 19.9193 20.3283C20.7028 20.3283 21.3352 20.9607 21.3352 21.7442V22.6881C21.3352 22.9524 21.1276 23.1601 20.8632 23.1601Z" fill="#9EB3FF"/>
<path d="M20.341 13.5037C20.2843 13.3243 20.1334 13.2017 19.954 13.1734L18.8968 13.0224L18.4248 12.0878C18.3399 11.9274 18.1699 11.8518 18.0001 11.8518C17.8302 11.8518 17.6602 11.9274 17.5753 12.0878L17.1034 13.0224L16.0461 13.1733C15.8668 13.2017 15.7159 13.3243 15.6592 13.5037C15.612 13.6736 15.6592 13.8623 15.7913 13.9851L16.5465 14.712L16.3671 15.7313C16.3388 15.9013 16.4049 16.0806 16.5559 16.194C16.6975 16.2977 16.8958 16.3166 17.0467 16.2317L18.0001 15.7408L18.9535 16.2317C19.1139 16.3166 19.3026 16.2977 19.4444 16.194C19.5953 16.0806 19.6614 15.9013 19.633 15.7313L19.4537 14.712L20.2088 13.9851C20.341 13.8624 20.3883 13.6736 20.341 13.5037Z" fill="#3366FF"/>
<path d="M22.2792 22.6881V25.5451H13.7209V22.6881C13.7209 22.4238 13.9285 22.2162 14.1929 22.2162H21.8072C22.0716 22.2162 22.2792 22.4238 22.2792 22.6881Z" fill="#3366FF"/>
<path d="M18.9534 16.2317L18 15.7408V11.8518C18.1699 11.8518 18.3398 11.9274 18.4248 12.0878L18.8967 13.0224L19.954 13.1734C20.1333 13.2017 20.2842 13.3243 20.3409 13.5037C20.3881 13.6736 20.3409 13.8624 20.2088 13.9851L19.4536 14.712L19.6329 15.7315C19.6613 15.9013 19.5952 16.0806 19.4442 16.194C19.3026 16.2977 19.1138 16.3166 18.9534 16.2317Z" fill="#254EDC"/>
<path d="M22.2791 22.6881V25.5451H18V22.2162H21.8071C22.0715 22.2162 22.2791 22.4238 22.2791 22.6881Z" fill="#254EDC"/>
<path d="M23.2232 25.5828C23.2232 25.847 23.0156 26.0548 22.7512 26.0548H13.2491C12.9847 26.0548 12.7771 25.847 12.7771 25.5828C12.7771 25.3184 12.9847 25.1108 13.2491 25.1108H22.7512C23.0156 25.1108 23.2232 25.3184 23.2232 25.5828Z" fill="#697C86"/>
<path d="M23.223 25.5828C23.223 25.847 23.0154 26.0548 22.7511 26.0548H18V25.1108H22.7511C23.0154 25.1108 23.223 25.3184 23.223 25.5828Z" fill="#465A61"/>
</svg>
